<svg width="133" height="114" viewBox="0 0 133 114" fill="none" xmlns="http://www.w3.org/2000/svg">
<path d="M66.8922 0.115926C67.2517 -0.35471 67.2804 0.789298 66.8988 0.342797L66.8922 0.115926Z" fill="#B5B8B2"/>
<path d="M65.9307 1.29369C65.8447 0.982343 66.2218 0.547912 66.5107 0.639626C66.6144 0.95821 66.2262 1.41919 65.9307 1.29369Z" fill="#B5B8B2"/>
<path d="M67.4899 1.26475C67.2429 0.94617 67.4524 0.65413 67.6686 0.415192C67.8715 0.839971 68.156 1.28165 68.0126 1.78608C68.2795 2.21809 68.5551 2.6477 68.822 3.08213C68.9433 2.93008 69.0668 2.77803 69.1947 2.63321C70.8796 5.79975 72.9593 8.71045 74.609 11.9108C74.4877 11.918 74.2473 11.9349 74.126 11.9446C74.1458 12.0821 74.1833 12.3573 74.201 12.4949C74.5296 12.6855 74.6663 13.0548 74.8075 13.4096C74.7369 12.9414 74.5274 12.478 74.6068 11.9977C76.0579 14.6284 77.2047 17.445 78.3449 20.2471C78.1001 20.2905 77.8708 20.1819 77.6458 20.0974C78.0935 21.0459 78.4993 22.0186 78.8412 23.0178C78.7441 22.3637 78.5523 21.7193 78.1619 21.2028C78.2259 20.9277 78.3053 20.6598 78.4111 20.4015C79.0705 22.0982 79.4719 23.8939 80.0982 25.6027C79.9791 25.762 79.8601 25.9212 79.7388 26.0781C79.7013 25.9068 79.6241 25.5616 79.5866 25.3903C79.7895 26.7201 80.1181 28.021 80.3849 29.3388C80.3673 28.5713 80.1909 27.8279 80.0211 27.0918C80.1512 27.1039 80.4092 27.128 80.5371 27.1377C80.493 28.441 81.0576 29.6694 80.9209 30.9848C80.5878 30.5842 80.6011 30.0242 80.5129 29.527C80.4886 30.0725 80.4599 30.6204 80.4335 31.1682L80.7246 31.1151C80.6959 31.8633 80.9164 32.6791 80.568 33.3718C80.6694 33.338 80.8723 33.268 80.9738 33.2342C80.879 32.4353 80.5217 31.482 81.0885 30.8062C81.4016 34.1538 81.5229 37.5568 81.0554 40.8971C80.9628 41.6912 80.7069 42.4635 80.7665 43.272C80.6342 43.2937 80.3739 43.3324 80.2416 43.3541C80.4026 42.6252 80.5526 41.8915 80.5923 41.1409C80.3673 42.2559 80.0189 43.3637 80.0784 44.5222C80.1005 44.235 80.1423 43.6582 80.1644 43.371C80.2923 43.5303 80.418 43.692 80.5437 43.8585C80.407 44.375 80.2923 44.906 80.3033 45.449C80.1865 45.4635 79.9527 45.4949 79.8336 45.5094C79.8601 45.3259 79.913 44.9567 79.9373 44.7732C79.8248 44.9374 79.602 45.2656 79.4895 45.4273C79.505 45.8352 79.8071 45.8714 80.1093 45.8835C79.7564 47.1892 79.2403 48.4321 78.8897 49.7403C78.7882 49.552 78.6912 49.3613 78.5986 49.1731C78.5081 49.2286 78.3295 49.3372 78.2391 49.3903C78.2479 49.5375 78.2678 49.8296 78.2788 49.9744C78.453 49.902 78.6272 49.8271 78.8015 49.7475C78.4596 50.807 77.9788 51.8014 77.5951 52.8392C77.4429 52.6703 77.2952 52.4965 77.1518 52.3251C76.9908 52.6799 76.8541 53.0492 76.6644 53.3871C76.4461 53.8722 76.2498 54.367 76.0579 54.8666C76.3689 54.2704 76.7019 53.667 77.2246 53.2688C76.8519 54.3284 76.2983 55.2938 75.7007 56.2133C74.0885 58.8851 72.1698 61.3541 69.9357 63.4225C69.1352 64.26 68.2574 65.0226 67.3025 65.6381C66.9364 65.9374 66.5416 65.5319 66.2483 65.3147C65.2029 64.3686 64.0715 63.5311 63.132 62.4547C62.1153 61.3155 61.0369 60.2415 60.0842 59.0395L60.179 58.9623C60.6399 58.8633 60.8583 59.4619 61.1604 59.7443C61.0435 59.4426 60.6554 59.153 60.8671 58.8078C60.7458 58.6848 60.6267 58.5641 60.512 58.4434C60.415 58.4917 60.2231 58.5882 60.1283 58.6365C60.018 58.3444 59.9143 58.0621 59.8107 57.7724C59.8482 57.9969 59.8724 58.2238 59.8791 58.4555C59.8261 58.4627 59.7225 58.4772 59.6717 58.4844C58.4896 56.7829 57.2987 55.0693 56.4033 53.1626C55.3933 50.9977 54.5309 48.7435 53.9134 46.4072C53.6157 45.1546 53.2474 43.902 53.2562 42.5938C53.501 42.9076 53.5782 43.3155 53.6995 43.6992C53.7414 43.692 53.8274 43.6751 53.8693 43.6678C53.7414 42.9703 53.5694 42.2825 53.415 41.5946C53.4326 42.0146 53.3444 42.4201 53.0886 42.7435C52.9585 40.9937 52.5924 39.2632 52.6299 37.5013C52.663 35.7346 52.5461 33.9583 52.7887 32.2036C52.8482 30.6759 53.1768 29.1867 53.3158 27.6686C53.5628 28.0041 53.6378 28.412 53.6179 28.8368C53.7833 28.2189 54.0083 27.5938 53.9068 26.9398C53.7767 27.2487 53.662 27.5673 53.4701 27.8376C53.6554 25.3541 54.6302 23.0612 55.2764 20.7032C55.3955 20.8553 55.5145 21.0122 55.6314 21.169C55.5322 21.4683 55.433 21.77 55.3337 22.0717C55.5079 21.6566 55.7351 21.2728 55.9667 20.8939C55.9468 20.7829 55.9115 20.5632 55.8939 20.4522C55.7263 20.527 55.5609 20.6067 55.4021 20.6912C55.4793 20.3919 55.6314 19.7933 55.7086 19.4941C55.8387 19.6533 55.96 19.8271 56.0857 19.9985C56.174 19.9285 56.3482 19.7861 56.4342 19.7161C56.4099 19.5978 56.3592 19.3637 56.3328 19.2455C56.1607 19.3155 55.9931 19.3903 55.8299 19.4723C56.1188 18.7797 56.4077 18.0821 56.6084 17.3508C56.7297 17.5029 56.8488 17.6622 56.9701 17.8215C57.0142 17.7636 57.1024 17.6477 57.1466 17.5898C57.4994 17.0298 57.1443 16.3299 57.431 15.7579C58.2382 13.9574 59.213 12.2535 60.1084 10.5061C60.1591 10.5085 60.2606 10.5158 60.3113 10.5182C60.3532 10.6147 60.4348 10.8078 60.4767 10.9068C60.6289 10.5858 60.6046 9.92928 61.0942 10.1103C60.7414 9.54795 61.5 9.22454 61.7933 8.87699C61.7603 8.81665 61.6897 8.69598 61.6544 8.63564C61.403 8.79735 61.156 8.9687 60.9024 9.12558C62.2653 6.45382 63.8356 3.88342 65.6506 1.55437C65.6484 1.71366 65.6418 2.03467 65.6396 2.19396C65.4962 2.35567 65.3705 2.52943 65.2316 2.69355C65.6087 2.29774 65.955 1.8633 66.2483 1.39025C66.5041 1.05478 66.7423 0.393477 67.2517 0.671031C67.2958 0.936518 67.3355 1.20442 67.373 1.47473C67.4017 1.42163 67.4613 1.31785 67.4899 1.26475ZM78.8831 23.3291C78.528 24.0387 79.6131 23.3822 78.8831 23.3291V23.3291Z" fill="#B5B8B2"/>
<path d="M68.1339 1.60266C68.5132 1.6099 68.8903 2.16019 68.8418 2.57048C68.4669 2.60427 68.092 1.984 68.1339 1.60266Z" fill="#B5B8B2"/>
<path d="M26.3965 9.47795C27.5499 9.35486 28.7122 9.39106 29.8656 9.50208C29.0717 10.1586 27.9888 9.70482 27.0691 9.80377C26.0547 9.63 25.2938 10.4506 24.4756 10.9381C24.7799 10.0837 25.5805 9.5407 26.3965 9.47795Z" fill="#B5B8B2"/>
<path d="M60.5803 9.44418C60.7061 9.25352 60.8516 9.21973 61.0214 9.34282C60.9553 9.66382 60.7965 10.0331 60.5318 10.202C60.2319 10.1369 60.5649 9.64451 60.5803 9.44418Z" fill="#B5B8B2"/>
<path d="M103.976 9.93167C104.124 9.32829 104.735 9.55757 105.136 9.47551C106.215 9.4369 107.309 9.39345 108.365 9.68066C108.233 9.82065 108.098 9.96063 107.964 10.0982C107.851 10.0306 107.628 9.89788 107.516 9.8303C106.34 9.90029 105.156 9.87616 103.976 9.93167Z" fill="#B5B8B2"/>
<path d="M31.5131 10.4386C30.9154 10.2165 30.2582 10.1176 29.7311 9.71451C30.3023 9.74588 30.8757 9.81829 31.4491 9.8545C31.4645 9.99931 31.4976 10.2913 31.5131 10.4386Z" fill="#B5B8B2"/>
<path d="M103.202 9.93653C103.189 9.60105 103.974 9.58657 103.978 9.92447C103.72 10.0934 103.462 10.0982 103.202 9.93653Z" fill="#B5B8B2"/>
<path d="M24.7513 10.9188C25.2586 10.5495 25.746 10.0524 26.3811 9.97753C27.389 9.85686 28.4101 9.87858 29.4224 9.9534C30.2318 10.4313 31.2573 10.3347 32.1328 10.6895C31.9851 10.6461 31.6917 10.5592 31.544 10.5157C31.6829 10.3782 31.8263 10.2454 31.974 10.1151C34.0493 10.8995 36.0959 11.778 38.0301 12.9269C38.663 12.9703 38.1404 13.3396 37.9948 13.5085C38.1911 13.6099 38.3741 13.7402 38.5792 13.8343C38.5616 13.6437 38.5484 13.4554 38.5417 13.2672C42.0483 15.4224 45.1183 18.3548 47.7295 21.6879C48.9204 23.2181 49.8886 24.9293 50.8501 26.6356C51.4985 27.5166 51.0177 28.704 51.1016 29.7201C50.645 29.2084 50.8325 28.4771 50.7884 27.8376C50.8435 27.1763 50.387 26.6815 50.0496 26.1988C50.5436 26.959 50.9406 27.8641 50.6936 28.8199C50.4554 29.6718 50.4135 30.5552 50.5326 31.4361C50.6053 30.7989 50.5039 30.0556 50.9317 29.5439C51.0244 30.7676 50.7112 31.9574 50.6737 33.1738C50.6517 35.8818 50.5568 38.6067 51.0023 41.2857C50.8744 41.4474 50.7443 41.6067 50.6142 41.766C50.5943 41.2181 50.5767 40.6775 50.5392 40.132C50.4554 41.0371 50.5083 41.9566 50.7377 42.8327C50.7377 42.5793 50.7332 42.0749 50.7332 41.8215C50.8479 41.8263 51.0817 41.836 51.1986 41.8408C51.0332 42.7555 51.3574 43.6364 51.547 44.5126C52.7865 50.6115 55.4991 56.4088 59.502 60.8883C60.1437 61.6968 60.8958 62.3919 61.5662 63.1739C60.4503 63.1883 59.4292 62.6574 58.3662 62.3702C54.1649 61.091 50.2194 58.9575 46.5739 56.3581C46.6974 56.2229 46.8231 56.0926 46.9532 55.9647C46.3996 55.5471 45.7248 55.2237 45.4138 54.5311C45.3653 54.5697 45.266 54.6469 45.2175 54.6831C44.9793 54.5021 44.7434 54.3283 44.5052 54.1546C45.1514 54.7772 45.8836 55.2793 46.6069 55.7909C46.479 55.9261 46.3511 56.0612 46.221 56.194C45.8218 55.7668 45.3895 55.383 44.9264 55.0451C43.0276 53.5994 41.3117 51.8931 39.5099 50.3146C39.6731 50.1674 39.8473 50.0347 40.0083 49.8875C39.2431 49.494 38.6454 48.84 38.0698 48.1787C38.5881 48.8231 39.1571 49.4361 39.5232 50.206C36.9936 47.9156 34.6492 45.3814 32.382 42.7772C31.2088 41.2012 30.1965 39.4828 29.3452 37.6751C28.0175 35.2229 27.5434 32.3484 27.3096 29.5487C27.4022 27.6276 27.6647 25.7161 27.6823 23.7901C28.1874 24.28 28.0396 25.0427 27.9999 25.6968C27.9073 26.4908 27.786 27.2824 27.797 28.0886C27.9624 26.708 28.194 25.3323 28.1124 23.9349C27.9756 23.5608 27.8918 23.1698 27.8036 22.7837C27.7595 23.1119 27.7132 23.4425 27.6647 23.7732C27.2765 22.4506 26.8862 21.1014 26.1143 19.9767C24.9741 18.2511 24.275 16.2141 23.9838 14.1167C23.9464 13.4675 23.7854 12.6783 24.2595 12.1642C24.3124 13.2213 24.3632 14.2857 24.5815 15.3211C24.5617 14.7418 24.4977 14.1674 24.3742 13.605C24.458 12.7048 24.6124 11.8118 24.7513 10.9188ZM34.8455 11.7056C34.8609 12.5045 35.5115 11.3629 34.8455 11.7056V11.7056ZM34.9227 27.4442C36.5878 30.1328 39.7481 30.6855 42.0285 32.5198C41.3426 30.9824 41.0317 29.2881 40.4031 27.7241C39.8363 26.3219 39.4217 24.7507 38.3389 23.6984C37.7699 23.054 36.9627 22.552 36.1268 22.6002C34.3007 23.1505 33.8597 25.914 34.9227 27.4442ZM51.6022 58.9792C51.6264 59.7805 52.2594 58.6123 51.6022 58.9792V58.9792Z" fill="#B5B8B2"/>
<path d="M101.852 10.342C102.071 10.0403 102.534 9.87864 102.86 10.0524C102.79 10.3879 102.031 10.6534 101.852 10.342Z" fill="#B5B8B2"/>
<path d="M103.12 10.132C104.525 9.88099 105.932 10.0017 107.344 9.9727C107.946 10.0475 108.369 10.5785 108.863 10.9091C108.696 10.5423 108.513 10.1851 108.347 9.82065C109.3 10.3709 109.695 11.5439 109.807 12.6517C109.942 13.7668 109.754 14.8842 109.664 15.9944C109.536 16.0162 109.28 16.0644 109.152 16.0861L109.196 15.5721C108.808 17.2905 107.983 18.8207 107.103 20.2832C107.955 19.0186 108.733 17.6501 109.084 16.1103C109.203 16.2696 109.322 16.4313 109.443 16.5954C108.718 18.4755 107.668 20.1722 106.843 21.9944C106.19 23.4498 106.098 25.1224 106.371 26.6984C107.075 32.2036 105.112 37.774 101.947 42.0001C101.841 41.4208 102.276 40.9333 102.463 40.4241C102.249 40.7644 102.08 41.1771 101.687 41.305C101.601 41.5488 101.522 41.7973 101.442 42.0459C101.577 42.058 101.846 42.0821 101.98 42.0942C101.297 42.7748 100.712 43.5592 100.119 44.3315C98.123 46.6606 95.8889 48.7145 93.7365 50.8625C92.2147 52.2768 90.618 53.5898 89.0544 54.9438C88.7941 55.2358 88.4258 54.9703 88.1215 54.9583C88.2736 55.0138 88.578 55.1248 88.7302 55.1803C88.2362 55.5737 87.7488 55.9792 87.3077 56.445C87.1709 56.3098 87.0364 56.1723 86.9085 56.0347L87.2173 55.8126C87.0739 55.8995 86.9306 55.9888 86.7894 56.0781C86.8115 56.2833 86.8313 56.4933 86.8556 56.7032C85.9447 57.1352 85.1618 57.8134 84.2973 58.3324C80.687 60.5697 76.7482 62.1457 72.7277 63.2125C72.9813 62.7105 73.2614 62.2253 73.5548 61.7523C73.6783 61.8802 73.8018 62.013 73.9253 62.1481C73.7753 62.2809 73.4732 62.5439 73.3232 62.6767C73.5724 62.527 73.8238 62.3774 74.0752 62.2302C74.0488 61.9744 74.0245 61.7185 74.0046 61.4675C75.5396 59.7249 76.9665 57.8496 78.1596 55.8078C79.3947 53.4643 80.5437 51.0363 81.3024 48.4562C81.4457 48.6469 81.5869 48.8448 81.7302 49.0427C81.9265 48.4273 82.0544 47.7925 82.1448 47.1505C81.9177 47.6284 81.7853 48.1714 81.4633 48.5914C81.5317 47.3629 82.0434 46.243 82.2485 45.0435C82.4293 44.3315 82.4183 43.5544 82.6984 42.8858C83.1439 42.9534 82.8969 43.6558 82.9652 44.0178C83.0248 43.1272 83.2409 42.2559 83.2189 41.3605C83.1284 41.7322 83.3247 42.6879 82.7315 42.4273C83.0733 40.8971 83.0314 39.3162 83.2431 37.7668C83.4504 35.1747 83.124 32.5898 82.9322 30.0121C82.9035 29.0853 82.3014 28.021 82.8991 27.1883C83.8805 25.6026 84.6943 23.8842 85.8565 22.4409C86.6152 21.49 87.279 20.416 88.2626 19.7161C88.0399 20.165 87.7752 20.5874 87.5084 21.0073C87.8436 20.6791 88.2031 20.3822 88.5603 20.0805C88.8228 19.6847 89.0896 19.2913 89.4006 18.9389C89.0455 19.1803 88.7015 19.6413 88.245 19.5206C91.4737 15.8786 95.3905 12.9727 99.6844 11.0515C99.6072 11.2374 99.5389 11.4256 99.4749 11.6139C99.583 11.6404 99.7969 11.6935 99.9028 11.7177C99.9711 11.6211 100.106 11.4232 100.174 11.3267C100.006 11.1964 99.8432 11.0612 99.6844 10.926C99.9359 10.8633 100.781 10.3371 100.602 11.0443L100.615 11.1577C100.913 11.1795 101.144 10.9429 101.396 10.803L100.895 10.8874C100.913 10.7499 100.95 10.4771 100.97 10.3396C101.175 10.3251 101.588 10.2961 101.793 10.2816L101.788 10.6364C102.247 10.5206 102.695 10.354 103.12 10.132ZM97.0424 22.8536C96.0896 23.1964 95.3662 24.0459 94.8325 24.9438C93.4983 27.3935 92.9778 30.2511 91.7119 32.7394C92.9976 31.9405 94.3429 31.2623 95.6397 30.4804C96.7071 29.8697 97.8297 29.2591 98.6082 28.2213C99.5036 27.0194 99.6602 25.2406 99.0382 23.8577C98.6347 23.1529 97.8209 22.5616 97.0424 22.8536ZM80.4841 51.5721C80.1158 52.2768 81.2119 51.6324 80.4841 51.5721V51.5721ZM74.534 62.1143C74.6089 62.9132 75.1669 61.6992 74.534 62.1143V62.1143Z" fill="#B5B8B2"/>
<path d="M24.1823 12.0797C24.147 11.7346 24.2176 11.0419 24.5925 11.0106C24.6587 11.3291 24.555 12.1594 24.1823 12.0797Z" fill="#B5B8B2"/>
<path d="M56.8203 17.1095C56.8379 16.774 56.979 16.6002 57.2415 16.593C57.2216 16.7354 57.1819 17.0178 57.1599 17.1578C57.0761 17.1457 56.9063 17.1216 56.8203 17.1095Z" fill="#B5B8B2"/>
<path d="M80.0211 26.2567C80.0894 26.2929 80.2239 26.3605 80.2901 26.3967C80.3673 26.8987 79.8248 26.8915 79.902 26.3943L80.0211 26.2567Z" fill="#B5B8B2"/>
<path d="M16.2472 43.8223C17.5462 43.4651 18.8628 43.0934 20.2081 43.0403C22.7289 43.0306 25.3026 42.881 27.7462 43.6992C31.1624 44.7418 33.9125 47.3364 36.5105 49.8585C37.6661 51.1232 38.8857 52.3203 40.1693 53.4257C40.0568 53.5439 39.9421 53.6622 39.8296 53.7804C39.6312 53.5705 39.4305 53.3629 39.2298 53.1626C39.5363 53.6525 39.962 54.0749 40.542 53.8384C41.5653 54.7821 42.5555 55.7885 43.7068 56.5512C43.5855 56.6767 43.4664 56.8022 43.3451 56.9252C43.9229 57.3331 44.4698 57.7893 45.0057 58.2599L45.0432 58.1344C45.6784 58.6799 46.3797 59.1288 47.1384 59.4329C46.6025 58.9792 45.7203 58.8512 45.5571 58.0331C46.5782 58.593 47.5552 59.2471 48.5057 59.9421C47.811 60.198 48.1926 60.2994 48.6006 60.3862C48.5697 60.4924 48.5079 60.7072 48.4793 60.8134C48.8211 60.1907 49.2357 60.9124 49.2666 61.3444C49.2556 61.2286 49.2335 61.0017 49.2247 60.8883C49.6922 61.1417 50.2149 61.3058 50.6207 61.6847L50.398 61.8561C50.4509 61.8971 50.5545 61.9792 50.6075 62.0202C50.6317 61.9405 50.6825 61.7764 50.7089 61.6944C50.6758 61.4554 50.645 61.2165 50.6141 60.9824C51.1941 61.3034 51.9109 61.4699 52.2946 62.1047C51.8866 61.9767 51.4896 61.8488 51.0905 61.7137C51.7477 62.0612 52.4247 62.3653 53.0621 62.7635C52.9077 62.5874 52.8548 62.3919 52.9055 62.1722C53.3554 62.1167 53.7612 62.4257 54.1824 62.5584C54.9918 62.9325 55.9115 63.0508 56.626 63.6469C56.4584 63.6566 56.1276 63.6734 55.9622 63.6831C56.7628 63.91 57.5722 64.1369 58.3176 64.5423C58.6881 64.7016 59.041 65.025 59.4666 64.9261C59.7908 64.8706 60.1326 64.6799 60.4502 64.8875C63.068 66.0218 65.5866 67.7571 67.1723 70.3637C68.286 68.2905 70.1187 66.7893 72.0793 65.7732C71.9801 66.3887 71.3692 66.5817 70.9744 66.9293C71.9955 66.309 73.0166 65.6308 74.1877 65.4112C74.2252 65.3436 74.3002 65.2109 74.3377 65.1457C74.1855 65.0154 74.0399 64.8874 73.8944 64.7571C75.0037 64.4675 76.038 63.9196 77.1341 63.589C77.7362 63.671 78.3515 63.7459 78.9183 63.4345C78.4441 63.5045 77.9656 63.6228 77.4958 63.4635C83.51 61.3999 89.2154 58.0958 93.9151 53.4691C95.1898 52.3854 96.2528 51.0508 97.5165 49.9526C99.1684 48.198 100.88 46.4096 102.953 45.268C102.851 45.4442 102.651 45.7965 102.549 45.9727C103.551 45.2245 104.697 44.7804 105.809 44.276C105.904 44.2929 106.096 44.3267 106.19 44.3436C106.254 44.2857 106.382 44.1722 106.444 44.1167C106.279 44.1312 105.948 44.1602 105.782 44.1771C105.787 44.054 105.796 43.8102 105.802 43.6871C108.766 43.0499 111.812 42.8931 114.831 43.0693C115.885 43.2672 117.083 43.1972 117.952 43.9888C116.948 45.0773 115.462 45.5021 114.622 46.7933C114.5 46.6461 114.381 46.4964 114.267 46.3492C114.198 46.3878 114.059 46.4699 113.991 46.5085L114.227 46.4361C114.214 46.6244 114.187 47.0033 114.174 47.1915C113.795 47.3291 113.404 47.3894 113.01 47.3846C112.853 47.5101 112.696 47.6356 112.542 47.7635C112.187 48.6565 111.452 49.2551 110.914 50.0033C111.45 49.4844 111.843 48.7796 112.491 48.4055C112.628 48.1376 112.765 47.8697 112.93 47.6236L113.107 48.0508C111.883 49.5495 110.7 51.0918 109.573 52.6847C109.56 52.5254 109.532 52.2068 109.518 52.0451C109.648 51.852 109.779 51.659 109.909 51.4659C108.735 52.9236 107.977 54.7314 106.711 56.0974C106.499 56.4257 106.292 56.7563 106.093 57.0942C106.722 56.3388 107.3 55.5351 107.851 54.7121C108.347 53.9735 108.634 52.9574 109.525 52.6726C106.526 58.1586 102.113 62.7129 96.9255 65.6574C96.9409 65.5174 96.974 65.235 96.9916 65.0926C97.0931 65.013 97.2938 64.8561 97.3952 64.7788C97.1592 64.9502 96.9144 65.1071 96.6763 65.276C96.6035 65.305 96.4579 65.3605 96.3851 65.3895C96.5594 65.5005 96.7336 65.6212 96.9056 65.7491C95.9617 66.0194 95.1236 66.6131 94.1599 66.8183C94.3826 66.5286 94.6605 66.2969 94.9274 66.0604C94.6737 66.087 94.4223 66.1135 94.1731 66.1425C94.14 66.2535 94.0761 66.4731 94.043 66.5817C93.4519 66.671 92.8852 66.8738 92.3206 67.0789C92.4375 67.1127 92.669 67.1803 92.7859 67.2117C92.7617 67.2744 92.7153 67.4023 92.6933 67.4651C91.9898 67.4048 91.2796 67.243 90.5783 67.3999C88.6243 67.9478 86.5556 67.8319 84.5686 67.5954C84.4495 67.6485 84.3304 67.704 84.2135 67.7619C85.6735 67.8995 87.1357 67.8126 88.5956 67.8126C88.9088 67.7354 89.1536 67.9816 89.3962 68.1481C87.6539 68.3026 85.905 68.2567 84.165 68.1095C83.5827 68.013 82.9917 67.8971 82.4051 68.0202C82.4073 67.8947 82.4095 67.6437 82.4117 67.5158C82.9189 67.5399 83.4306 67.564 83.9422 67.5785C83.0953 67.4337 82.2441 67.3179 81.3906 67.2213L81.3707 67.383C81.6133 67.3806 82.0985 67.371 82.3411 67.3685C82.1977 67.5158 82.0522 67.6606 81.9066 67.803C81.2252 67.6002 80.5283 67.4554 79.8225 67.412C80.1974 67.0982 80.676 67.0982 81.1237 67.0379C80.762 67.0451 80.3937 67.05 80.0342 67.0644C80.0078 66.9413 79.957 66.6952 79.9306 66.5721C79.6836 66.6686 79.4366 66.7676 79.1918 66.8665C79.3175 66.9027 79.5711 66.9727 79.6968 67.0089C79.677 67.0813 79.6417 67.2262 79.6218 67.2986C78.1685 66.8207 76.6401 66.77 75.1515 66.6542C75.1691 66.589 75.2022 66.4611 75.2198 66.3959C75.9983 66.338 76.821 66.4948 77.5532 66.1135C76.9048 66.2752 76.2409 66.3235 75.5793 66.3259C74.7435 66.3211 73.9583 66.6638 73.1556 66.8617C73.321 66.8858 73.654 66.9389 73.8194 66.9655C73.7907 67.0234 73.7356 67.1417 73.7069 67.202C71.7044 67.8826 69.8497 69.408 68.9984 71.5488C68.2375 73.1537 68.2596 75.0049 68.0015 76.7475C67.6134 78.3959 67.0466 80.0178 66.1578 81.4249C64.6736 83.5367 62.5652 85.2406 60.1238 85.6823C59.6871 85.7427 59.2284 85.7523 58.8204 85.552C58.5425 84.9848 59.1865 84.6469 59.5526 84.4273C61.2706 83.515 62.7262 82.062 63.8179 80.3605C64.925 78.2414 65.7498 75.7676 65.3374 73.2961C64.9603 71.6887 64.356 70.0307 63.1166 68.988C61.5375 67.6051 59.5239 66.7459 57.4972 66.7121C55.0756 66.9631 52.7114 67.634 50.3142 68.0564C48.4572 68.3919 46.5694 68.0009 44.7102 68.2688C44.7014 68.1433 44.6815 67.8923 44.6705 67.7644C46.1548 67.9212 47.65 67.8416 49.1387 67.7909C47.7625 67.692 46.3819 67.8054 45.0079 67.6823C44.6948 67.3951 44.2669 67.4241 43.9008 67.5351C44.0331 67.593 44.3 67.7113 44.4345 67.7692C44.1434 68.194 43.5413 67.873 43.151 68.0323C43.1554 67.9068 43.162 67.6533 43.1664 67.5278C43.3318 67.5399 43.6626 67.5616 43.828 67.5713C43.312 67.4578 42.7937 67.3589 42.271 67.2865C41.6932 66.992 41.0073 66.8834 40.5508 66.3669C40.467 66.4128 40.3038 66.5045 40.2222 66.5504C40.0524 66.2269 39.7679 66.1425 39.4459 66.198C39.6334 66.3959 39.823 66.5962 40.0017 66.811C38.7402 66.5504 37.622 65.8287 36.4443 65.3098C34.8322 64.4168 33.2531 63.3935 31.8791 62.0998C31.7975 61.704 31.6895 61.3154 31.5924 60.9269C31.3079 61.0379 31.3653 61.3299 31.3719 61.5809C31.2815 61.6027 31.1006 61.6437 31.0102 61.6654C30.7434 61.0717 30.2273 60.7024 29.8105 60.2487C27.6977 58.062 25.94 55.5109 24.2595 52.9236C24.3918 52.9285 24.652 52.9405 24.7821 52.9454C24.9939 53.2808 25.21 53.6139 25.4305 53.947C25.06 53.3822 24.791 52.7547 24.4976 52.1441C24.416 52.1175 24.2572 52.0596 24.1779 52.0331C24.244 52.3034 24.3543 52.5761 24.2947 52.8657C23.0774 51.0797 21.8357 49.2889 20.3007 47.8142C19.1473 46.6702 17.9432 45.519 16.481 44.8794C16.4722 44.7346 16.4545 44.4474 16.4457 44.3026C17.705 44.9952 18.9422 45.7869 19.928 46.9067C19.0348 45.6252 17.6631 44.9832 16.4589 44.1312C16.2781 44.3219 16.0928 44.5077 15.901 44.6839C15.773 44.3484 15.8745 43.8657 16.2472 43.8223Z" fill="#B5B8B2"/>
<path d="M103.511 45.1401C103.947 44.4619 104.79 44.0178 105.538 44.0733C105.527 44.1337 105.504 44.2544 105.493 44.3147C104.852 44.6405 104.183 44.9012 103.511 45.1401Z" fill="#B5B8B2"/>
<path d="M103.405 45.046C103.524 45.1763 103.524 45.1763 103.405 45.046V45.046Z" fill="#B5B8B2"/>
<path d="M102.988 45.2873C103.107 45.4176 103.107 45.4176 102.988 45.2873V45.2873Z" fill="#B5B8B2"/>
<path d="M113.338 47.4595C113.457 47.5922 113.457 47.5922 113.338 47.4595V47.4595Z" fill="#B5B8B2"/>
<path d="M77.2114 52.9551C77.2683 53.0018 77.2683 53.0018 77.2114 52.9551V52.9551Z" fill="#B5B8B2"/>
<path d="M43.8171 57.2077C43.8127 57.0701 43.806 56.7974 43.8016 56.6598C44.3817 57.1159 44.9793 57.548 45.5726 57.9896C45.4182 58.0041 45.1094 58.0355 44.9551 58.05C44.5824 57.7579 44.2008 57.478 43.8171 57.2077Z" fill="#B5B8B2"/>
<path d="M48.5035 60.017C48.616 60.1497 48.616 60.1497 48.5035 60.017V60.017Z" fill="#B5B8B2"/>
<path d="M48.9094 60.2777C49.1718 60.1836 49.3769 60.2704 49.5269 60.5359C49.4828 60.9366 48.7572 60.6059 48.9094 60.2777Z" fill="#B5B8B2"/>
<path d="M49.8334 60.799C49.8927 60.8587 49.8927 60.8587 49.8334 60.799V60.799Z" fill="#B5B8B2"/>
<path d="M50.2766 60.9752C50.3935 61.1079 50.3935 61.1079 50.2766 60.9752V60.9752Z" fill="#B5B8B2"/>
<path d="M52.2946 61.931L52.4688 61.8175L52.5901 61.931C52.5637 62.0106 52.5107 62.1651 52.4865 62.2423L52.3034 62.153L52.2946 61.931Z" fill="#B5B8B2"/>
<path d="M56.6636 63.5986C56.7033 64.3951 57.3296 63.227 56.6636 63.5986V63.5986Z" fill="#B5B8B2"/>
<path d="M57.3451 63.8376C57.3671 64.6365 58.0155 63.4804 57.3451 63.8376V63.8376Z" fill="#B5B8B2"/>
<path d="M58.1919 64.1224C58.3176 64.2455 58.3176 64.2455 58.1919 64.1224V64.1224Z" fill="#B5B8B2"/>
<path d="M58.6329 64.3348C58.6418 65.1337 59.31 63.9873 58.6329 64.3348V64.3348Z" fill="#B5B8B2"/>
<path d="M59.2571 64.5979L59.4467 64.4772C60.0157 64.5448 59.2637 65.1192 59.2571 64.5979Z" fill="#B5B8B2"/>
<path d="M72.2051 66.0171C72.4124 65.1699 73.3651 65.0903 74.0069 64.9382C73.7886 65.1337 73.5438 65.2833 73.3056 65.4426C72.9726 65.7057 72.5866 65.8698 72.2051 66.0171Z" fill="#B5B8B2"/>
<path d="M72.1059 65.8167C72.2272 65.9422 72.2272 65.9422 72.1059 65.8167V65.8167Z" fill="#B5B8B2"/>
<path d="M40.2091 66.7024C40.5884 66.2535 40.5685 67.3975 40.2047 66.9293L40.2091 66.7024Z" fill="#B5B8B2"/>
<path d="M74.093 66.881C74.1503 66.5914 74.6664 66.4949 74.834 66.7362C74.8472 67.0886 74.254 67.0403 74.093 66.881Z" fill="#B5B8B2"/>
<path d="M93.0527 67.1224C93.1343 66.7362 93.8621 66.5287 94.0672 66.8328C93.8202 67.0717 93.3527 67.3227 93.0527 67.1224Z" fill="#B5B8B2"/>
<path d="M40.7846 67.0765C41.0294 66.77 41.8498 67.0041 41.9799 67.3734C41.5918 67.5472 41.0956 67.3444 40.7846 67.0765Z" fill="#B5B8B2"/>
<path d="M42.3394 67.4748C42.615 67.2672 42.7915 67.3155 42.8687 67.622C42.5908 67.8272 42.4143 67.7765 42.3394 67.4748Z" fill="#B5B8B2"/>
<path d="M91.0613 67.61C91.048 67.2648 91.8288 67.26 91.8199 67.6003C91.5663 67.7741 91.3127 67.7765 91.0613 67.61Z" fill="#B5B8B2"/>
<path d="M89.7381 67.8344C89.8528 67.5303 90.6644 67.4844 90.768 67.8151C90.4615 67.9913 90.0469 67.9913 89.7381 67.8344Z" fill="#B5B8B2"/>
<path d="M27.2876 97.1007C28.4675 96.5311 29.7686 96.5697 31.0301 96.618C33.6965 96.7966 36.3849 98.4016 37.5758 101.097C38.4271 102.717 38.6101 104.614 38.5704 106.448C38.4403 106.291 38.3124 106.132 38.1889 105.973C38.2484 104.498 38.0897 102.92 37.3354 101.66C37.8206 102.888 38.1536 104.218 38.072 105.567C37.9242 106.801 37.6861 108.024 37.2737 109.188C37.3861 108.893 37.4986 108.599 37.6111 108.304C37.7368 108.459 37.8625 108.616 37.986 108.78C37.0443 110.727 35.5777 112.412 33.659 113.189C31.4712 114.015 28.999 114.046 26.8266 113.139C24.5506 112.067 22.7202 109.75 22.3342 107.035C22.0629 105.678 22.2173 104.288 22.3298 102.925C22.4445 102.91 22.6694 102.881 22.7841 102.867C22.7665 103.195 22.751 103.525 22.7378 103.859C22.8591 103.303 22.9716 102.748 23.0686 102.188C23.0311 102.35 22.9583 102.669 22.9209 102.828C22.7841 102.669 22.6496 102.507 22.5195 102.345C23.3708 99.9897 25.005 97.8417 27.2876 97.1007ZM27.5037 98.5923C26.4341 99.3863 25.66 100.61 25.2718 101.954C25.1174 102.485 24.9476 101.515 24.9564 101.481C24.8726 101.988 24.7205 102.476 24.6367 102.982C24.4735 102.99 24.1493 103.007 23.9861 103.014C24.1294 103.031 24.4161 103.067 24.5595 103.084C24.4889 103.542 24.4227 104.003 24.3544 104.467C24.3919 104.546 24.4646 104.703 24.5021 104.781C24.5154 104.262 24.5374 103.733 24.5683 103.221C24.7028 103.376 24.8329 103.535 24.9609 103.702C24.844 104.426 24.8462 105.164 24.9366 105.896C24.8748 105.912 24.7535 105.946 24.6918 105.963C24.6212 105.693 24.5551 105.423 24.4955 105.155C24.4558 105.21 24.3786 105.316 24.3389 105.369C24.383 105.792 24.4294 106.224 24.608 106.612C24.7756 107.402 24.9344 108.2 25.2564 108.939C25.0116 108.051 24.7558 107.163 24.6565 106.238C24.7888 106.255 25.0579 106.287 25.1924 106.301C25.0425 107.276 25.5166 108.174 25.7747 109.077C26.9149 111.394 29.4731 113.17 31.9057 112.313C33.5024 111.929 34.8543 110.515 35.2491 108.772C35.3991 109.031 35.4851 109.318 35.5578 109.617C35.6527 109.39 35.7519 109.168 35.8578 108.949C35.849 108.746 35.8335 108.336 35.8269 108.13C35.6836 108.394 35.5534 108.664 35.3836 108.912C35.5667 107.476 35.9482 106.038 35.7233 104.583C35.5645 102.758 34.808 101.061 33.7604 99.6566C33.9964 99.6011 34.2192 99.6977 34.4397 99.7942C34.4529 99.6784 34.4816 99.4418 34.497 99.326C34.3559 99.3115 34.0736 99.2825 33.9303 99.2705L34.0383 98.9133C33.6237 98.7612 33.2201 98.5778 32.8275 98.3726C33.1826 98.5899 33.7406 98.8988 33.5531 99.4418C31.9388 97.8537 29.4202 97.3807 27.5037 98.5923ZM27.3537 112.781C27.3427 113.583 28.0264 112.448 27.3537 112.781V112.781Z" fill="#B5B8B2"/>
<path d="M105.05 98.7178C108.482 95.4861 114.368 95.9181 117.244 99.8063C117.628 100.352 117.928 100.958 118.272 101.534C118.126 101.566 117.98 101.575 117.837 101.566L117.74 101.587C117.733 101.976 117.956 102.304 118.082 102.657C118.058 102.468 118.007 102.087 117.983 101.896C118.102 101.916 118.342 101.954 118.461 101.974C118.501 102.946 118.854 103.871 118.832 104.848C118.86 105.838 118.717 106.83 118.417 107.764C118.347 107.283 118.294 106.801 118.256 106.318C118.227 106.743 118.219 107.189 118.007 107.566C117.751 107.988 118.322 108.43 118.113 108.874C117.482 110.566 116.24 111.91 114.765 112.733C112.921 113.853 110.711 113.993 108.669 113.621C106.717 113.264 105.004 111.985 103.806 110.288C103.844 110.211 103.917 110.056 103.954 109.979C103.853 109.933 103.648 109.844 103.546 109.798C102.977 108.642 102.62 107.38 102.512 106.074C102.357 105.092 102.721 104.129 102.611 103.149C102.726 103.142 102.953 103.127 103.068 103.12C103.045 103.378 103.004 103.895 102.981 104.151C103.129 103.564 103.257 102.97 103.337 102.369C103.297 102.543 103.217 102.893 103.178 103.067C103.048 102.905 102.922 102.741 102.801 102.577C103.372 101.187 104.011 99.7676 105.05 98.7178ZM106.673 99.758C105.22 101.752 104.997 104.544 105.471 106.962C105.37 106.989 105.165 107.04 105.063 107.064C105.119 107.394 105.202 107.764 105.068 108.092C105.394 108.365 105.568 108.787 105.758 109.176C105.573 108.647 105.392 108.118 105.218 107.59C105.337 107.426 105.46 107.262 105.588 107.105C105.837 109.402 107.324 111.587 109.412 112.207C110.875 112.897 112.593 112.458 113.828 111.435C115.025 110.549 115.623 108.995 115.923 107.503C116.457 105.143 116.029 102.543 114.778 100.538C113.744 98.8215 111.849 97.7861 109.979 97.8779C108.74 98.0927 107.458 98.6333 106.673 99.758ZM102.986 107.392C103.279 107.317 103.321 107.143 103.112 106.868C102.818 106.938 102.776 107.112 102.986 107.392Z" fill="#B5B8B2"/>
<path d="M125.86 96.8183C127.598 96.2777 129.407 96.7266 131.105 97.2335C131.806 98.4257 131.584 99.98 131.59 101.339C130.607 101.059 130.567 99.6977 129.854 99.0339C128.664 97.4265 125.997 97.5086 125.139 99.4563C124.581 100.731 125.631 101.937 126.518 102.62C127.107 103.163 128.042 103.294 128.372 104.117C127.894 103.919 127.435 103.69 126.983 103.439C127.47 103.789 127.964 104.148 128.54 104.298C128.904 104.619 129.294 104.906 129.705 105.157C129.821 105.012 129.943 104.872 130.071 104.74C130.642 105.415 131.398 105.929 131.782 106.779C132.199 107.585 132.278 108.519 132.395 109.419C132.261 109.424 131.989 109.434 131.853 109.439C131.848 109.19 131.839 108.693 131.833 108.444C131.771 109.062 131.696 109.678 131.659 110.3C131.689 110.257 131.753 110.17 131.784 110.126C131.983 109.738 132.305 110.39 131.996 110.549C131.33 112.388 129.645 113.677 127.848 113.783C126.216 113.877 124.542 113.65 123.011 113.03C122.462 112.439 122.574 111.435 122.535 110.648C122.614 109.914 122.244 108.845 123.104 108.55C123.011 109.4 122.855 110.245 122.843 111.106C122.945 110.431 123.013 109.755 123.121 109.084C123.688 109.692 123.878 110.609 124.515 111.169C124.533 111.328 124.57 111.649 124.588 111.811C124.339 111.594 124.094 111.377 123.849 111.164C124.063 111.451 124.281 111.741 124.5 112.031C124.663 111.85 124.826 111.669 124.996 111.495C125.232 112.205 125.96 112.306 126.538 112.48C127.852 112.837 129.418 112.166 129.954 110.756C130.212 109.697 130.095 108.273 129.072 107.747C129.186 107.619 129.308 107.493 129.431 107.373C129.7 107.718 129.978 108.065 130.267 108.396C129.934 107.851 129.51 107.38 129.008 107.023C128.994 107.182 128.97 107.503 128.957 107.662C128.136 106.735 127.038 106.214 126.019 105.606C125.964 105.497 125.854 105.28 125.799 105.172C125.73 105.2 125.596 105.261 125.527 105.29C125.144 105.039 124.764 104.773 124.398 104.501C124.813 104.377 125.19 104.686 125.583 104.797C125.413 104.604 125.243 104.411 125.082 104.221C124.963 104.175 124.727 104.088 124.608 104.042L124.645 103.779C124.392 103.612 124.149 103.431 123.913 103.246C124.048 103.569 124.308 103.885 124.202 104.266C123.185 103.311 122.53 101.812 122.839 100.337C123.086 98.643 124.339 97.2045 125.86 96.8183Z" fill="#B5B8B2"/>
<path d="M0.0793457 97.1586C1.4886 97.1273 2.9155 96.98 4.31373 97.231C4.04467 97.3324 3.77561 97.4314 3.50435 97.5279C4.07114 97.931 4.39092 98.6333 4.64013 99.2994C4.59823 99.3911 4.51222 99.577 4.47032 99.6687C4.53868 99.7073 4.67762 99.7821 4.74599 99.8208C4.90037 100.043 4.99741 100.291 5.04152 100.571C5.51568 101.445 5.91927 102.348 6.22361 103.313C6.82128 104.23 7.16973 105.299 7.6461 106.289C7.34396 105.217 6.72424 104.295 6.43533 103.219C6.31403 102.978 6.39122 102.715 6.49488 102.493C6.98448 103.716 7.53804 104.904 8.0541 106.115C8.15555 106.39 8.33419 106.663 8.27465 106.982C8.1732 106.965 7.9703 106.933 7.86885 106.919C8.23715 107.452 8.47092 108.075 8.665 108.705C8.67162 108.512 8.68705 108.121 8.69588 107.925C9.00904 108.41 9.28913 108.925 9.53393 109.456C11.2277 105.35 12.992 101.276 14.5799 97.1224C15.8392 97.0983 17.1007 97.079 18.3622 97.1369C17.9101 97.9455 16.75 98.1482 16.7147 99.2584C16.9551 102.806 17.2617 106.366 17.4227 109.926C17.4844 110.616 17.5881 111.295 17.6498 111.987C17.5947 111.932 17.48 111.823 17.4249 111.768C17.3764 111.613 17.2815 111.304 17.2352 111.15C17.147 111.584 17.1095 112.06 17.372 112.443C17.5197 112.282 17.6675 112.122 17.8197 111.968C18.1108 112.687 18.8959 112.755 19.4605 113.095C19.2421 113.315 19.026 113.6 18.6886 113.537C16.997 113.517 15.2989 113.597 13.6095 113.489C13.4794 112.569 14.8754 112.564 14.8953 111.62C15.1048 108.044 14.4586 104.503 14.4299 100.933C14.0969 102.362 13.4044 103.641 12.8795 104.988C11.6489 107.809 10.5661 110.706 9.40161 113.561C9.234 113.559 8.89657 113.556 8.72896 113.554C8.31875 112.764 8.01661 111.912 7.5645 111.15C7.67698 111 7.79386 110.858 7.91075 110.718L8.10042 111.065C7.54686 109.704 6.96904 108.357 6.3802 107.018C6.64926 107.954 7.09034 108.816 7.39027 109.74C7.27118 109.699 7.03079 109.612 6.9095 109.569C6.02954 107.274 4.97756 105.065 3.99835 102.821C3.5286 102.724 4.00497 101.949 4.12186 102.408C4.43062 102.953 4.71952 103.513 4.98858 104.085C4.73276 103.349 4.48134 102.613 4.24095 101.872C3.84177 101.66 3.72268 101.18 3.53081 100.786C3.62785 101.03 3.72489 101.276 3.82192 101.525C3.74253 101.619 3.57933 101.805 3.49993 101.899C3.40731 103.605 3.2 105.304 3.25734 107.018C3.33012 108.55 2.78979 110.098 3.17795 111.613C3.25734 112.103 3.69842 112.325 4.03585 112.576C3.79105 112.815 3.51758 113.028 3.25513 112.673L3.37643 112.986C2.66408 113.015 1.95174 113.023 1.23939 112.996C1.38495 112.702 1.5305 112.412 1.67827 112.125C1.43347 112.422 1.18646 112.714 0.935042 113.003C0.782869 112.851 0.632903 112.697 0.48514 112.545C1.47096 112.567 1.17984 111.186 1.87675 110.814C1.8547 111.143 1.83264 111.476 1.80839 111.811C1.96276 110.87 2.30681 109.914 2.09288 108.951C1.96717 109.608 2.24506 110.515 1.66724 110.954C1.56579 108.845 1.95835 106.762 1.90101 104.657C2.59792 105.49 2.09288 106.726 2.22521 107.744C2.25608 106.752 2.47221 105.751 2.27373 104.768L2.57146 104.778C2.45457 102.944 2.55161 101.107 2.47442 99.2729C2.36856 100.825 2.49427 102.384 2.41046 103.938C2.40164 104.279 2.28255 104.597 2.06421 104.846C1.97379 103.096 2.30681 101.332 2.04657 99.5939C1.79515 98.4306 0.690244 98.0227 0.0793457 97.1586Z" fill="#B5B8B2"/>
<path d="M41.8211 97.1321C43.956 97.0669 46.093 97.12 48.2301 97.0911C49.7716 97.1055 51.5139 97.5641 52.4644 99.005C53.6245 100.68 53.3863 103.349 51.8844 104.686C51.3728 105.273 50.6582 105.538 49.9547 105.712C50.8567 107.117 51.7146 108.553 52.4887 110.049C53.0114 110.993 53.5738 112.118 54.6235 112.431C54.628 112.581 54.6412 112.885 54.6456 113.035C54.2773 112.818 53.9266 112.591 53.5738 112.349C53.7855 112.629 54.2707 112.81 54.167 113.264C53.3025 113.778 52.213 113.264 51.5051 112.62C50.1069 111.299 49.5709 109.258 48.3536 107.771C48.4726 107.624 48.5917 107.481 48.7175 107.341L48.9049 107.701C48.8101 107.479 48.7175 107.259 48.6248 107.044L48.6182 107.322C48.4881 107.293 48.2279 107.237 48.0955 107.211C47.6721 106.395 46.8362 106.205 46.0423 106.303C46.0599 108.058 45.9541 109.822 46.0974 111.572C46.232 112.465 47.07 112.668 47.7162 112.958C48.036 113.204 47.6015 113.542 47.3567 113.53C45.4799 113.542 43.6009 113.566 41.7263 113.505C41.916 112.605 43.0121 112.579 43.2855 111.717C43.4818 110.817 43.3142 109.866 43.4201 108.949C43.5458 109.272 43.6759 109.598 43.8214 109.919C43.7178 109.424 43.5303 108.963 43.4024 108.48C43.2966 105.413 43.5634 102.34 43.3605 99.2777C43.398 98.4571 42.6702 98.0154 42.1365 97.622C42.4122 97.5496 42.6901 97.4772 42.9657 97.4024C42.5401 97.4724 42.1189 97.5545 41.6976 97.6317C41.7285 97.5062 41.7903 97.2576 41.8211 97.1321ZM46.0335 98.3437C46.0224 100.586 46.0379 102.828 46.0269 105.07C47.1097 105.089 48.2852 105.181 49.2468 104.527C50.8457 103.54 50.9956 101.008 50.1223 99.4105C49.1144 98.1047 47.4295 98.3099 46.0335 98.3437Z" fill="#B5B8B2"/>
<path d="M58.7322 97.1249C60.9663 97.0742 63.2026 97.1104 65.4389 97.1007C67.2253 97.1152 69.133 98.1434 69.8232 100.036C70.6812 102.324 69.5829 105.611 67.2275 106.12C67.4326 105.922 67.673 105.785 67.9134 105.649C67.9905 105.529 68.1405 105.287 68.2155 105.164L68.2221 105.143C67.7788 105.384 67.3201 105.592 66.8812 105.843C67.0312 106.002 67.1812 106.168 67.3289 106.337C65.9109 106.682 64.4641 106.931 63.0107 106.721C63.0548 108.266 62.949 109.818 63.057 111.36C63.1938 112.299 64.0782 112.728 64.7861 113.057C64.3759 113.049 63.9679 113.035 63.5599 113.018C62.4329 112.948 61.2244 113.247 60.1636 112.76L59.9937 112.965C59.857 112.827 59.7247 112.687 59.5924 112.552C60.0136 112.32 60.437 111.941 60.3664 111.367C60.4635 107.913 60.3245 104.455 60.4106 100.999C60.4106 100.25 60.5694 99.5239 60.7855 98.8192C60.6686 99.0436 60.5539 99.2681 60.4392 99.4949C60.3268 99.1474 60.2672 98.7902 60.115 98.4668C59.7159 97.9382 58.8315 97.8996 58.7322 97.1249ZM63.0196 98.3268C63.0107 100.736 63.0107 103.144 63.0262 105.553C64.2458 105.62 65.6043 105.536 66.5636 104.597C67.8428 103.27 67.7722 100.96 66.9033 99.4032C65.9307 98.2037 64.3538 98.2882 63.0196 98.3268Z" fill="#B5B8B2"/>
<path d="M72.9572 97.149C74.8539 97.0187 76.7593 97.1514 78.6604 97.1128C78.6803 97.2214 78.7178 97.4386 78.7354 97.5472C78.1554 97.2552 77.5158 97.499 76.9071 97.4676C75.4846 97.441 74.0577 97.4097 72.6418 97.581C72.7212 97.4724 72.88 97.2576 72.9572 97.149Z" fill="#B5B8B2"/>
<path d="M83.4924 97.1272C85.4861 97.0572 87.482 97.1297 89.4757 97.1055C89.4779 97.2358 89.4823 97.4989 89.4845 97.6317C88.706 97.2769 87.8724 97.552 87.063 97.441C87.5658 97.54 88.0885 97.663 88.4788 98.0589C87.665 98.6453 87.6981 99.7966 87.7092 100.735C87.7555 102.104 87.5989 103.492 87.8437 104.846C87.7025 104.858 87.4202 104.879 87.2791 104.889C87.2548 104.177 87.2725 103.468 87.3166 102.76C87.2857 102.756 87.2196 102.748 87.1887 102.743C87.3717 103.921 86.9836 105.08 87.1181 106.26L86.9748 106.494C87.0211 106.53 87.1115 106.605 87.1578 106.641C87.1821 106.579 87.2328 106.455 87.2593 106.395C87.2306 105.978 87.2218 105.555 87.3166 105.15C87.4666 105.225 87.6143 105.311 87.7577 105.41C87.6805 107.315 87.7136 109.221 87.7224 111.128C87.6628 111.753 88.115 112.192 88.4965 112.571C88.1613 112.921 87.7202 113.085 87.2791 113.199C87.8768 113.148 88.4789 113.175 89.0787 113.206C88.9508 113.199 88.6972 113.184 88.5693 113.177C88.5803 113.04 88.6001 112.764 88.6112 112.627C89.0037 112.723 89.3566 112.943 89.6323 113.269C88.9023 113.701 88.0598 113.515 87.2703 113.542C86.097 113.503 84.9215 113.595 83.7527 113.51C83.2785 113.353 83.6733 112.856 83.8541 112.639C84.0129 112.789 84.1695 112.945 84.3283 113.107L83.9842 113.206C84.787 113.141 85.5942 113.177 86.4014 113.194C85.7177 113.129 85.0362 113.069 84.3591 112.967C84.3812 112.842 84.4231 112.586 84.4452 112.46C85.1553 112.074 85.1112 111.147 85.1178 110.411C85.1002 108.765 85.1773 107.117 85.1575 105.473C84.9325 105.198 84.4937 105.386 84.1915 105.324C81.7832 105.357 79.3771 105.285 76.971 105.367C77.1475 107.513 76.7262 109.721 77.2423 111.826C77.1166 111.842 76.8652 111.879 76.7395 111.896L76.7328 111.69C76.6953 111.739 76.6248 111.838 76.5873 111.888C76.7174 112.06 76.8585 112.224 76.9975 112.395C77.132 112.231 77.271 112.072 77.4121 111.915C77.4937 112.289 77.5731 112.665 77.6481 113.044C77.4231 113.042 77.2004 113.04 76.9798 113.044C76.4616 113.04 75.8749 113.139 75.4603 112.733C75.5353 113.264 75.1097 113.037 74.8207 112.999L74.9001 113.064C74.3951 113.03 73.8901 113.008 73.396 113.134L73.8415 113.102C73.8349 113.257 73.8217 113.563 73.8151 113.718C73.374 113.602 72.8998 113.537 72.6043 113.124C73.1402 112.837 73.7467 112.641 74.1547 112.137C74.2738 112.113 74.512 112.062 74.6311 112.036C74.6112 112.163 74.5693 112.417 74.5495 112.545C75.2707 111.729 74.7524 110.645 74.856 109.67C74.9487 108.85 74.9023 108.022 74.7855 107.208C74.748 108.671 74.8207 110.131 74.8031 111.591C74.7347 111.64 74.5958 111.736 74.5274 111.782C74.3554 107.619 74.5627 103.431 74.4348 99.2632C74.4591 98.4185 73.7026 98.0323 73.1755 97.6051C74.3488 97.6703 75.5177 97.4241 76.6931 97.5424C77.2511 97.6244 77.8774 97.4313 78.3759 97.803C77.8796 97.9478 77.2026 98.1216 77.1386 98.8022C76.8409 100.533 77.035 102.316 76.9688 104.071C79.6815 104.146 82.3963 104.093 85.109 104.093C85.0958 102.403 85.2325 100.706 85.0362 99.0243C84.9811 98.3605 84.3636 97.9937 83.8409 97.8368C83.9688 97.7258 84.1011 97.6196 84.2356 97.5158C84.5841 97.6703 84.9458 97.6003 85.2986 97.5158C84.8024 97.4579 84.3084 97.3903 83.821 97.2865C83.7747 97.4072 83.6799 97.6461 83.6314 97.7668C83.5983 97.6075 83.5277 97.2865 83.4924 97.1272ZM74.7502 99.6397C74.5561 99.9269 74.6068 100.101 74.9023 100.156C75.0964 99.8618 75.0457 99.6904 74.7502 99.6397ZM74.7369 100.574C74.437 101.312 75.4669 100.564 74.7369 100.574V100.574Z" fill="#B5B8B2"/>
<path d="M92.8962 97.1369C94.9539 97.0645 97.0137 97.079 99.0714 97.1224C98.9192 97.4145 98.7714 97.7113 98.6259 98.0082C98.4605 97.8586 98.2995 97.7065 98.1429 97.5545L98.5288 97.3928C97.4239 97.6051 96.308 97.4169 95.1987 97.4555C95.8316 97.4965 96.469 97.5327 97.1041 97.5979C97.457 97.6124 97.8077 97.622 98.1672 97.6413C98.1231 97.7837 98.0348 98.0685 97.9907 98.2109C97.296 98.6961 97.2519 99.688 97.221 100.499C97.1968 103.798 97.2277 107.098 97.199 110.397C97.1417 111.14 97.3093 111.869 97.7327 112.46C98.2047 112.646 98.659 112.892 99.067 113.218C98.3304 113.79 97.3865 113.464 96.5484 113.537C95.3244 113.433 94.021 113.814 92.8654 113.242C93.5755 112.67 94.3297 112.171 94.9848 111.517C94.7708 112.016 94.5106 112.494 94.2107 112.938C93.946 113.023 93.6836 113.112 93.4211 113.204C95.1237 113.085 96.8373 113.018 98.5355 113.223C97.8981 113.143 97.3512 112.842 97.0909 112.178C97.0292 112.214 96.9057 112.284 96.8439 112.32C97.0512 112.511 97.2497 112.721 97.4416 112.945C96.3852 113.023 95.3266 112.965 94.2724 113.013C94.6517 112.354 95.2229 111.712 95.1457 110.867C95.1259 108.763 95.1943 106.656 95.106 104.551C94.9495 106.837 95.1678 109.137 95.009 111.42L94.7466 111.686C94.7532 107.875 94.7355 104.064 94.7576 100.253C94.7642 99.6011 94.7223 98.8915 94.2724 98.4088C93.9019 97.861 93.1168 97.82 92.8962 97.1369Z" fill="#B5B8B2"/>
<path d="M4.18589 97.651C4.52553 97.8151 4.72622 98.305 4.78797 98.696C4.72181 98.7081 4.58507 98.7298 4.51671 98.7419C4.33586 98.4474 4.03372 97.984 4.18589 97.651Z" fill="#B5B8B2"/>
<path d="M88.642 97.6269C88.7147 97.6293 88.8603 97.6365 88.9331 97.6413L88.9551 97.8272L88.7412 97.931C88.717 97.8561 88.6662 97.7017 88.642 97.6269Z" fill="#B5B8B2"/>
<path d="M5.5444 100.687C5.14743 100.265 4.53212 99.4539 5.0107 98.8819C5.20918 99.4757 5.39664 100.072 5.5444 100.687Z" fill="#B5B8B2"/>
<path d="M5.5025 100.863C5.56419 100.923 5.56419 100.923 5.5025 100.863V100.863Z" fill="#B5B8B2"/>
<path d="M5.72302 101.291C5.84432 101.418 5.84432 101.418 5.72302 101.291V101.291Z" fill="#B5B8B2"/>
<path d="M3.76459 101.901C3.83022 101.941 3.83022 101.941 3.76459 101.901V101.901Z" fill="#B5B8B2"/>
<path d="M5.94128 101.761C6.06479 101.884 6.06479 101.884 5.94128 101.761V101.761Z" fill="#B5B8B2"/>
<path d="M6.19287 102.28C6.25218 102.342 6.25218 102.342 6.19287 102.28V102.28Z" fill="#B5B8B2"/>
<path d="M24.8218 102.896C24.641 102.386 25.3688 102.427 25.157 102.932C25.0931 102.963 24.963 103.023 24.899 103.055L24.8218 102.896Z" fill="#B5B8B2"/>
<path d="M128.348 103.933C128.465 104.061 128.465 104.061 128.348 103.933V103.933Z" fill="#B5B8B2"/>
<path d="M128.747 104.182C129.043 104.117 129.338 104.344 129.561 104.544C129.552 104.619 129.537 104.771 129.528 104.848C129.228 104.788 128.727 104.556 128.747 104.182Z" fill="#B5B8B2"/>
<path d="M37.6705 108.268C37.88 107.607 37.9661 106.868 38.3586 106.299C38.33 106.929 38.277 107.566 38.2219 108.198C38.0851 108.215 37.8095 108.251 37.6705 108.268Z" fill="#B5B8B2"/>
<path d="M8.35185 107.31C8.42022 107.344 8.55695 107.406 8.62532 107.438L8.5371 107.636L8.33641 107.638L8.24158 107.443L8.35185 107.31Z" fill="#B5B8B2"/>
<path d="M118.146 107.785C117.826 108.524 118.874 107.795 118.146 107.785V107.785Z" fill="#B5B8B2"/>
<path d="M7.32196 109.974C7.3789 110.042 7.3789 110.042 7.32196 109.974V109.974Z" fill="#B5B8B2"/>
<path d="M7.5116 110.587C7.57949 110.627 7.57949 110.627 7.5116 110.587V110.587Z" fill="#B5B8B2"/>
<path d="M0.0704956 112.832C0.432183 112.357 0.456443 113.501 0.0749074 113.061L0.0704956 112.832Z" fill="#B5B8B2"/>
<path d="M4.27631 113.122C4.27631 113.023 4.27631 112.83 4.27631 112.733C4.37114 112.762 4.5586 112.82 4.65343 112.851L4.65123 113.015C4.5586 113.042 4.37114 113.095 4.27631 113.122Z" fill="#B5B8B2"/>
<path d="M54.6963 113.107C54.8551 112.943 55.0161 112.784 55.1815 112.632C55.2697 112.798 55.4484 113.131 55.5366 113.298C55.2984 113.382 54.8198 113.759 54.6522 113.469L54.6412 113.322C54.7492 113.295 54.9654 113.247 55.0756 113.223L54.6963 113.107Z" fill="#B5B8B2"/>
<path d="M58.8689 113.479C58.5271 112.924 59.2902 112.863 59.5592 112.627C59.4865 112.851 59.4137 113.076 59.3387 113.3C60.4657 112.979 61.6367 113.189 62.7857 113.126C63.4341 113.16 64.1972 112.996 64.7133 113.544C62.7659 113.491 60.8097 113.626 58.8689 113.479Z" fill="#B5B8B2"/>
<path d="M77.6194 113.076C77.9987 112.501 78.861 112.716 78.7044 113.503C77.2202 113.58 75.7316 113.508 74.2473 113.573C73.9231 113.474 74.212 113.206 74.4238 113.242C75.7514 112.986 77.1077 113.177 78.4486 113.208C78.2413 113.175 77.8267 113.11 77.6194 113.076Z" fill="#B5B8B2"/>
<path d="M0 113.353C0.308757 113.194 0.721167 113.141 1.03213 113.322C0.92627 113.65 0.112476 113.655 0 113.353Z" fill="#B5B8B2"/>
<path d="M1.35626 113.295C1.75765 112.967 1.76647 113.935 1.37391 113.522L1.35626 113.295Z" fill="#B5B8B2"/>
<path d="M1.92532 113.645C1.91871 113.508 1.90547 113.235 1.90106 113.098C2.96627 113.105 4.03369 113.184 5.10111 113.114C4.88277 113.662 4.33142 113.508 3.9146 113.542C3.25077 113.527 2.58253 113.532 1.92532 113.645Z" fill="#B5B8B2"/>
</svg>
